<?xml version="1.0" encoding="UTF-8" standalone="no"?>
<svg
   xmlns:dc="http://purl.org/dc/elements/1.1/"
   xmlns:cc="http://creativecommons.org/ns#"
   xmlns:rdf="http://www.w3.org/1999/02/22-rdf-syntax-ns#"
   xmlns:svg="http://www.w3.org/2000/svg"
   xmlns="http://www.w3.org/2000/svg"
   xmlns:sodipodi="http://sodipodi.sourceforge.net/DTD/sodipodi-0.dtd"
   xmlns:inkscape="http://www.inkscape.org/namespaces/inkscape"
   viewBox="-9600 0 0 48"
   id="svg2985"
   version="1.1"
   inkscape:version="0.91 r13725"
   width="202"
   height="48"
   sodipodi:docname="hipack-logo-full.svg"
   inkscape:export-filename="/home/aperez/devel/hipack/assets/hipack-logo-full.png"
   inkscape:export-xdpi="90"
   inkscape:export-ydpi="90">
  <metadata
     id="metadata3048">
    <rdf:RDF>
      <cc:Work
         rdf:about="">
        <dc:format>image/svg+xml</dc:format>
        <dc:type
           rdf:resource="http://purl.org/dc/dcmitype/StillImage" />
        <dc:title />
      </cc:Work>
    </rdf:RDF>
  </metadata>
  <sodipodi:namedview
     pagecolor="#ffffff"
     bordercolor="#666666"
     borderopacity="1"
     objecttolerance="10"
     gridtolerance="10"
     guidetolerance="10"
     inkscape:pageopacity="0"
     inkscape:pageshadow="2"
     inkscape:window-width="1920"
     inkscape:window-height="1048"
     id="namedview3046"
     showgrid="false"
     inkscape:snap-global="false"
     showguides="true"
     inkscape:zoom="1"
     inkscape:cx="77.267836"
     inkscape:cy="-50.796016"
     inkscape:window-x="0"
     inkscape:window-y="32"
     inkscape:window-maximized="1"
     inkscape:current-layer="svg2985"
     inkscape:guide-bbox="true">
    <inkscape:grid
       type="xygrid"
       id="grid3890" />
  </sodipodi:namedview>
  <defs
     id="defs2987">
    <inkscape:path-effect
       effect="envelope"
       id="path-effect4362"
       is_visible="true"
       yy="true"
       xx="true"
       bendpath1="m 5.0000002,9.2499983 18.0625008,0"
       bendpath2="m 23.062501,9.2499983 0,27.4375007"
       bendpath3="m 5.0000002,36.687499 18.0625008,0"
       bendpath4="m 5.0000002,9.2499983 0,27.4375007" />
    <inkscape:perspective
       sodipodi:type="inkscape:persp3d"
       inkscape:vp_x="-77.95835 : 23.896346 : 1"
       inkscape:vp_y="0 : 939.02811 : 0"
       inkscape:vp_z="122.51805 : 23.56435 : 1"
       inkscape:persp3d-origin="17.759816 : 18.542099 : 1"
       id="perspective3544" />
    <linearGradient
       id="linearGradient3764"
       x1="1"
       x2="47"
       gradientUnits="userSpaceOnUse"
       gradientTransform="matrix(0,-1,1,0,-1.5e-6,47.999998)">
      <stop
         stop-color="#575757"
         stop-opacity="1"
         id="stop2990" />
      <stop
         offset="1"
         stop-color="#616161"
         stop-opacity="1"
         id="stop2992" />
    </linearGradient>
    <clipPath
       id="clipPath-453839718">
      <g
         transform="translate(0,-1004.3622)"
         id="g2995">
        <path
           d="m -24,13 c 0,1.105 -0.672,2 -1.5,2 -0.828,0 -1.5,-0.895 -1.5,-2 0,-1.105 0.672,-2 1.5,-2 0.828,0 1.5,0.895 1.5,2 z"
           transform="matrix(15.333333,0,0,11.5,414.99999,878.8622)"
           id="path2997"
           inkscape:connector-curvature="0"
           style="fill:#1890d0" />
      </g>
    </clipPath>
    <clipPath
       id="clipPath-462896869">
      <g
         transform="translate(0,-1004.3622)"
         id="g3000">
        <path
           d="m -24,13 c 0,1.105 -0.672,2 -1.5,2 -0.828,0 -1.5,-0.895 -1.5,-2 0,-1.105 0.672,-2 1.5,-2 0.828,0 1.5,0.895 1.5,2 z"
           transform="matrix(15.333333,0,0,11.5,414.99999,878.8622)"
           id="path3002"
           inkscape:connector-curvature="0"
           style="fill:#1890d0" />
      </g>
    </clipPath>
  </defs>
  <g
     id="g3016" />
  <rect
     style="opacity:1;fill:#800000;fill-opacity:1;stroke:none;stroke-width:2;stroke-linecap:square;stroke-linejoin:miter;stroke-miterlimit:4;stroke-dasharray:none;stroke-dashoffset:0;stroke-opacity:1"
     id="rect4160"
     width="44"
     height="44"
     x="2"
     y="2" />
  <path
     style="font-style:normal;font-variant:normal;font-weight:300;font-stretch:normal;font-size:medium;line-height:125%;font-family:Aileron;-inkscape-font-specification:'Aileron, Light';text-align:start;letter-spacing:0px;word-spacing:0px;writing-mode:lr-tb;text-anchor:start;fill:#800000;fill-opacity:1;stroke:none;stroke-width:1px;stroke-linecap:butt;stroke-linejoin:miter;stroke-opacity:1"
     d="m 67.623047,2 0,20.724609 -25.761719,0 0,3.378907 25.761719,0 0,19.896484 3.953125,0 0,-44 z"
     id="path4432"
     inkscape:connector-curvature="0"
     sodipodi:nodetypes="ccccccccc" />
  <path
     inkscape:connector-curvature="0"
     id="path4434"
     style="font-style:normal;font-variant:normal;font-weight:300;font-stretch:normal;font-size:medium;line-height:125%;font-family:Aileron;-inkscape-font-specification:'Aileron, Light';text-align:start;letter-spacing:0px;word-spacing:0px;writing-mode:lr-tb;text-anchor:start;fill:#800000;fill-opacity:1;stroke:none;stroke-width:1px;stroke-linecap:butt;stroke-linejoin:miter;stroke-opacity:1"
     d="m 78.10548,2 c -1.477372,0 -2.697811,1.1562043 -2.697811,2.6978101 0,1.4773724 1.220439,2.6978102 2.697811,2.6978102 1.541605,0 2.69781,-1.2204378 2.69781,-2.6978102 C 80.80329,3.1562043 79.647085,2 78.10548,2 Z m 1.99124,44 0,-33.979562 -3.982481,0 0,33.979562 3.982481,0 z" />
  <path
     inkscape:connector-curvature="0"
     id="path4436"
     style="font-style:normal;font-variant:normal;font-weight:300;font-stretch:normal;font-size:medium;line-height:125%;font-family:Aileron;-inkscape-font-specification:'Aileron, Light';text-align:start;letter-spacing:0px;word-spacing:0px;writing-mode:lr-tb;text-anchor:start;fill:#800000;fill-opacity:1;stroke:none;stroke-width:1px;stroke-linecap:butt;stroke-linejoin:miter;stroke-opacity:1"
     d="M 102.74494,2.2550725 C 100.76813,2 99.046386,2 96.814496,2 l -12.1797,0 0,44 3.95362,0 0,-18.62029 8.22608,0 c 2.23189,0 3.953634,0 5.930444,-0.255073 6.18551,-0.828984 11.15942,-5.03768 11.15942,-12.562318 0,-7.4608697 -4.52754,-11.414493 -11.15942,-12.3072465 z M 102.4261,23.68116 C 100.95944,23.936232 99.237696,24 97.133346,24 l -8.54493,0 0,-18.6202898 8.54493,0 c 2.10435,0 3.826094,0.063768 5.292754,0.3188405 4.01739,0.6376811 7.2058,3.2521739 7.2058,8.8637683 0,5.802899 -3.18841,8.481159 -7.2058,9.118841 z" />
  <path
     inkscape:connector-curvature="0"
     id="path4438"
     style="font-style:normal;font-variant:normal;font-weight:300;font-stretch:normal;font-size:medium;line-height:125%;font-family:Aileron;-inkscape-font-specification:'Aileron, Light';text-align:start;letter-spacing:0px;word-spacing:0px;writing-mode:lr-tb;text-anchor:start;fill:#800000;fill-opacity:1;stroke:none;stroke-width:1px;stroke-linecap:butt;stroke-linejoin:miter;stroke-opacity:1"
     d="m 135.65682,45.146277 3.78077,0 c -0.42685,-3.841749 -0.6098,-6.158996 -0.6098,-9.025063 l 0,-11.28133 c 0,-1.524504 0,-2.866068 -0.12196,-4.268611 -0.48784,-5.305274 -3.84175,-8.537223 -10.97643,-8.537223 -6.82978,0 -11.64721,4.085671 -12.07407,10.427608 l 3.96371,0 c 0.48784,-5.000374 3.65881,-7.3786 8.11036,-7.3786 4.6345,0 6.89076,2.134306 7.19566,5.854096 0.12196,1.280583 0.12196,2.500186 0.12196,3.96371 l 0,1.158624 -2.07333,0 c -11.6472,0 -18.65992,3.597829 -18.65992,10.976428 0,5.854095 4.26861,8.964084 10.24467,8.964084 3.53684,0 6.70781,-1.036663 8.96408,-3.292929 l 1.58548,-3.414889 0.54882,5.854095 z m -9.93976,-2.134305 c -4.69548,0 -7.25664,-2.195286 -7.25664,-6.280957 0,-6.219976 7.50055,-8.354282 16.5866,-7.74448 l 0,3.71979 c 0,6.037036 -3.71979,10.305647 -9.32996,10.305647 z" />
  <path
     inkscape:connector-curvature="0"
     id="path4440"
     style="font-style:normal;font-variant:normal;font-weight:300;font-stretch:normal;font-size:medium;line-height:125%;font-family:Aileron;-inkscape-font-specification:'Aileron, Light';text-align:start;letter-spacing:0px;word-spacing:0px;writing-mode:lr-tb;text-anchor:start;fill:#800000;fill-opacity:1;stroke:none;stroke-width:1px;stroke-linecap:butt;stroke-linejoin:miter;stroke-opacity:1"
     d="m 156.9171,11.957004 c -8.12876,0 -15.03515,6.356323 -15.03515,17.052057 0,11.429156 6.29521,16.990939 14.36284,16.990939 6.96751,0 12.28482,-3.789346 13.75167,-10.940209 l -3.91159,0 c -1.16125,5.195071 -4.82836,7.945403 -9.5956,7.945403 -5.43954,0 -10.45126,-4.339413 -10.45126,-14.301725 0,-9.351128 5.3173,-13.75166 10.75685,-13.75166 5.19508,0 8.43436,2.994806 9.53448,8.434351 l 3.97271,0 c -0.9779,-6.845269 -5.9285,-11.429156 -13.38495,-11.429156 z" />
  <path
     inkscape:connector-curvature="0"
     id="path4442"
     style="font-style:normal;font-variant:normal;font-weight:300;font-stretch:normal;font-size:medium;line-height:125%;font-family:Aileron;-inkscape-font-specification:'Aileron, Light';text-align:start;letter-spacing:0px;word-spacing:0px;writing-mode:lr-tb;text-anchor:start;fill:#800000;fill-opacity:1;stroke:none;stroke-width:1px;stroke-linecap:butt;stroke-linejoin:miter;stroke-opacity:1"
     d="m 194.37359,46 5.50954,0 -16.72083,-17.681803 16.59271,-16.208318 -5.18923,0 -17.36148,17.617738 0,-25.727617 -3.972,0 0,42 3.972,0 0,-11.915997 3.07509,-3.267289 z"
     sodipodi:nodetypes="ccccccccccccc" />
  <rect
     y="5"
     x="5"
     height="38"
     width="38"
     id="rect4162"
     style="opacity:1;fill:#ffffff;fill-opacity:1;stroke:none;stroke-width:2;stroke-linecap:square;stroke-linejoin:miter;stroke-miterlimit:4;stroke-dasharray:none;stroke-dashoffset:0;stroke-opacity:1" />
  <path
     style="opacity:1;fill:none;fill-opacity:1;stroke:#800000;stroke-width:3;stroke-linecap:square;stroke-linejoin:miter;stroke-miterlimit:4;stroke-dasharray:none;stroke-dashoffset:0;stroke-opacity:1"
     d="M 24,9.5 A 4.5,4.5 0 0 1 28.5,14 4.5,4.5 0 0 1 24,18.5 4.5,4.5 0 0 1 19.5,14 4.5,4.5 0 0 1 24,9.5 Z"
     id="path4168"
     inkscape:connector-curvature="0" />
  <path
     style="opacity:1;fill:none;fill-opacity:1;stroke:#800000;stroke-width:3;stroke-linecap:butt;stroke-linejoin:miter;stroke-miterlimit:4;stroke-dasharray:none;stroke-dashoffset:0;stroke-opacity:1"
     d="M 3.5,8.812 24.173828,30.134766 44.5,9.162"
     id="path4178"
     inkscape:connector-curvature="0"
     sodipodi:nodetypes="ccc" />
</svg>
